<?xml version="1.0" encoding="UTF-8" standalone="no"?>
<!DOCTYPE svg PUBLIC "-//W3C//DTD SVG 1.1//EN"
 "http://www.w3.org/Graphics/SVG/1.1/DTD/svg11.dtd">
<!-- Generated by graphviz version 10.0.1 (20240210.2158)
 -->
<!-- Title: G Pages: 1 -->
<svg width="988pt" height="541pt"
 viewBox="0.00 0.00 988.25 541.00" xmlns="http://www.w3.org/2000/svg" xmlns:xlink="http://www.w3.org/1999/xlink">
<g id="graph0" class="graph" transform="scale(1 1) rotate(0) translate(4 537)">
<title>G</title>
<polygon fill="white" stroke="none" points="-4,4 -4,-537 984.25,-537 984.25,4 -4,4"/>
<!-- aws_codebuild_project.tatulibos -->
<g id="node1" class="node">
<title>aws_codebuild_project.tatulibos</title>
<polygon fill="none" stroke="black" points="535.25,-171 319,-171 319,-135 535.25,-135 535.25,-171"/>
<text text-anchor="middle" x="427.12" y="-148.32" font-family="sans-serif" font-size="14.00">aws_codebuild_project.tatulibos</text>
</g>
<!-- aws_iam_role.codebuild_role -->
<g id="node3" class="node">
<title>aws_iam_role.codebuild_role</title>
<polygon fill="none" stroke="black" points="196.75,-379 0,-379 0,-343 196.75,-343 196.75,-379"/>
<text text-anchor="middle" x="98.38" y="-356.32" font-family="sans-serif" font-size="14.00">aws_iam_role.codebuild_role</text>
</g>
<!-- aws_codebuild_project.tatulibos&#45;&gt;aws_iam_role.codebuild_role -->
<g id="edge1" class="edge">
<title>aws_codebuild_project.tatulibos&#45;&gt;aws_iam_role.codebuild_role</title>
<path fill="none" stroke="black" d="M318.7,-152.9C289.24,-156.77 258.38,-164.73 232.75,-180 172.39,-215.96 130.97,-290.83 111.7,-332.12"/>
<polygon fill="black" stroke="black" points="108.53,-330.64 107.59,-341.2 114.9,-333.53 108.53,-330.64"/>
</g>
<!-- aws_codepipeline.tatulibos_pipeline -->
<g id="node2" class="node">
<title>aws_codepipeline.tatulibos_pipeline</title>
<polygon fill="none" stroke="black" points="938.62,-252 699.12,-252 699.12,-216 938.62,-216 938.62,-252"/>
<text text-anchor="middle" x="818.88" y="-229.32" font-family="sans-serif" font-size="14.00">aws_codepipeline.tatulibos_pipeline</text>
</g>
<!-- aws_codepipeline.tatulibos_pipeline&#45;&gt;aws_codebuild_project.tatulibos -->
<g id="edge2" class="edge">
<title>aws_codepipeline.tatulibos_pipeline&#45;&gt;aws_codebuild_project.tatulibos</title>
<path fill="none" stroke="black" d="M698.67,-220.5C684.5,-216.99 670.47,-212.56 657.5,-207 639.12,-199.12 639.99,-187.62 621.5,-180 598.16,-170.38 572.03,-164.07 546.72,-159.96"/>
<polygon fill="black" stroke="black" points="547.45,-156.53 537.04,-158.5 546.41,-163.45 547.45,-156.53"/>
</g>
<!-- aws_iam_role.codepipeline_role -->
<g id="node4" class="node">
<title>aws_iam_role.codepipeline_role</title>
<polygon fill="none" stroke="black" points="534.5,-117 319.75,-117 319.75,-81 534.5,-81 534.5,-117"/>
<text text-anchor="middle" x="427.12" y="-94.33" font-family="sans-serif" font-size="14.00">aws_iam_role.codepipeline_role</text>
</g>
<!-- aws_codepipeline.tatulibos_pipeline&#45;&gt;aws_iam_role.codepipeline_role -->
<g id="edge3" class="edge">
<title>aws_codepipeline.tatulibos_pipeline&#45;&gt;aws_iam_role.codepipeline_role</title>
<path fill="none" stroke="black" d="M698.81,-227.68C683.91,-223.07 669.66,-216.43 657.5,-207 626.37,-182.86 652.97,-149.7 621.5,-126 599.85,-109.69 572.85,-100.93 545.96,-96.6"/>
<polygon fill="black" stroke="black" points="546.75,-93.18 536.36,-95.27 545.78,-100.11 546.75,-93.18"/>
</g>
<!-- aws_s3_bucket.tatulicicd -->
<g id="node15" class="node">
<title>aws_s3_bucket.tatulicicd</title>
<polygon fill="none" stroke="black" points="512.38,-279 341.88,-279 341.88,-243 512.38,-243 512.38,-279"/>
<text text-anchor="middle" x="427.12" y="-256.32" font-family="sans-serif" font-size="14.00">aws_s3_bucket.tatulicicd</text>
</g>
<!-- aws_codepipeline.tatulibos_pipeline&#45;&gt;aws_s3_bucket.tatulicicd -->
<g id="edge4" class="edge">
<title>aws_codepipeline.tatulibos_pipeline&#45;&gt;aws_s3_bucket.tatulicicd</title>
<path fill="none" stroke="black" d="M698.82,-242.25C642.82,-246.13 576.93,-250.69 524.17,-254.35"/>
<polygon fill="black" stroke="black" points="524.03,-250.85 514.29,-255.03 524.51,-257.83 524.03,-250.85"/>
</g>
<!-- aws_iam_role_policy.codebuild_logs_policy -->
<g id="node5" class="node">
<title>aws_iam_role_policy.codebuild_logs_policy</title>
<polygon fill="none" stroke="black" points="569,-533 285.25,-533 285.25,-497 569,-497 569,-533"/>
<text text-anchor="middle" x="427.12" y="-510.32" font-family="sans-serif" font-size="14.00">aws_iam_role_policy.codebuild_logs_policy</text>
</g>
<!-- aws_iam_role_policy.codebuild_logs_policy&#45;&gt;aws_iam_role.codebuild_role -->
<g id="edge5" class="edge">
<title>aws_iam_role_policy.codebuild_logs_policy&#45;&gt;aws_iam_role.codebuild_role</title>
<path fill="none" stroke="black" d="M284.96,-505.79C266.86,-501.6 249,-495.85 232.75,-488 184.94,-464.92 143.05,-418.36 119.5,-388.48"/>
<polygon fill="black" stroke="black" points="122.32,-386.4 113.44,-380.62 116.77,-390.67 122.32,-386.4"/>
</g>
<!-- aws_iam_role_policy.codebuild_policy -->
<g id="node6" class="node">
<title>aws_iam_role_policy.codebuild_policy</title>
<polygon fill="none" stroke="black" points="944.62,-144 693.12,-144 693.12,-108 944.62,-108 944.62,-144"/>
<text text-anchor="middle" x="818.88" y="-121.33" font-family="sans-serif" font-size="14.00">aws_iam_role_policy.codebuild_policy</text>
</g>
<!-- aws_iam_role_policy.codebuild_policy&#45;&gt;aws_iam_role.codepipeline_role -->
<g id="edge6" class="edge">
<title>aws_iam_role_policy.codebuild_policy&#45;&gt;aws_iam_role.codepipeline_role</title>
<path fill="none" stroke="black" d="M692.68,-117.33C645.69,-114.07 592.48,-110.39 546.16,-107.18"/>
<polygon fill="black" stroke="black" points="546.58,-103.7 536.36,-106.5 546.1,-110.68 546.58,-103.7"/>
</g>
<!-- aws_iam_role_policy.codebuild_s3_upload_policy -->
<g id="node7" class="node">
<title>aws_iam_role_policy.codebuild_s3_upload_policy</title>
<polygon fill="none" stroke="black" points="980.25,-342 657.5,-342 657.5,-306 980.25,-306 980.25,-342"/>
<text text-anchor="middle" x="818.88" y="-319.32" font-family="sans-serif" font-size="14.00">aws_iam_role_policy.codebuild_s3_upload_policy</text>
</g>
<!-- aws_iam_role_policy.codebuild_s3_upload_policy&#45;&gt;aws_iam_role.codebuild_role -->
<g id="edge7" class="edge">
<title>aws_iam_role_policy.codebuild_s3_upload_policy&#45;&gt;aws_iam_role.codebuild_role</title>
<path fill="none" stroke="black" d="M657.18,-339.46C645.11,-340.39 633.12,-341.26 621.5,-342 478.92,-351.12 314.13,-356.21 208.44,-358.78"/>
<polygon fill="black" stroke="black" points="208.56,-355.27 198.64,-359.01 208.72,-362.27 208.56,-355.27"/>
</g>
<!-- aws_iam_role_policy.codebuild_s3_upload_policy&#45;&gt;aws_s3_bucket.tatulicicd -->
<g id="edge8" class="edge">
<title>aws_iam_role_policy.codebuild_s3_upload_policy&#45;&gt;aws_s3_bucket.tatulicicd</title>
<path fill="none" stroke="black" d="M721.63,-305.51C689.8,-299.62 654.18,-293.27 621.5,-288 589.76,-282.88 554.99,-277.84 523.8,-273.54"/>
<polygon fill="black" stroke="black" points="524.36,-270.08 513.98,-272.19 523.41,-277.02 524.36,-270.08"/>
</g>
<!-- aws_iam_role_policy.codepipeline_ecs_policy -->
<g id="node8" class="node">
<title>aws_iam_role_policy.codepipeline_ecs_policy</title>
<polygon fill="none" stroke="black" points="967.5,-90 670.25,-90 670.25,-54 967.5,-54 967.5,-90"/>
<text text-anchor="middle" x="818.88" y="-67.33" font-family="sans-serif" font-size="14.00">aws_iam_role_policy.codepipeline_ecs_policy</text>
</g>
<!-- aws_iam_role_policy.codepipeline_ecs_policy&#45;&gt;aws_iam_role.codepipeline_role -->
<g id="edge9" class="edge">
<title>aws_iam_role_policy.codepipeline_ecs_policy&#45;&gt;aws_iam_role.codepipeline_role</title>
<path fill="none" stroke="black" d="M669.97,-82.25C629.11,-85.08 585.31,-88.11 546.37,-90.81"/>
<polygon fill="black" stroke="black" points="546.23,-87.31 536.5,-91.49 546.71,-94.29 546.23,-87.31"/>
</g>
<!-- aws_iam_role_policy.codepipeline_policy -->
<g id="node9" class="node">
<title>aws_iam_role_policy.codepipeline_policy</title>
<polygon fill="none" stroke="black" points="953.62,-36 684.12,-36 684.12,0 953.62,0 953.62,-36"/>
<text text-anchor="middle" x="818.88" y="-13.32" font-family="sans-serif" font-size="14.00">aws_iam_role_policy.codepipeline_policy</text>
</g>
<!-- aws_iam_role_policy.codepipeline_policy&#45;&gt;aws_iam_role.codepipeline_role -->
<g id="edge10" class="edge">
<title>aws_iam_role_policy.codepipeline_policy&#45;&gt;aws_iam_role.codepipeline_role</title>
<path fill="none" stroke="black" d="M702.95,-36.43C687.64,-39.15 672.17,-42.04 657.5,-45 609.17,-54.75 555.51,-67.28 512.26,-77.82"/>
<polygon fill="black" stroke="black" points="511.56,-74.39 502.68,-80.17 513.22,-81.19 511.56,-74.39"/>
</g>
<!-- aws_iam_role_policy.ecr_policy -->
<g id="node10" class="node">
<title>aws_iam_role_policy.ecr_policy</title>
<polygon fill="none" stroke="black" points="532.25,-479 322,-479 322,-443 532.25,-443 532.25,-479"/>
<text text-anchor="middle" x="427.12" y="-456.32" font-family="sans-serif" font-size="14.00">aws_iam_role_policy.ecr_policy</text>
</g>
<!-- aws_iam_role_policy.ecr_policy&#45;&gt;aws_iam_role.codebuild_role -->
<g id="edge11" class="edge">
<title>aws_iam_role_policy.ecr_policy&#45;&gt;aws_iam_role.codebuild_role</title>
<path fill="none" stroke="black" d="M321.68,-453.42C292.41,-449.43 260.91,-443.32 232.75,-434 197.86,-422.45 161.48,-401.87 135.54,-385.5"/>
<polygon fill="black" stroke="black" points="137.71,-382.74 127.41,-380.28 133.93,-388.63 137.71,-382.74"/>
</g>
<!-- aws_iam_role_policy.s3_download_policy -->
<g id="node11" class="node">
<title>aws_iam_role_policy.s3_download_policy</title>
<polygon fill="none" stroke="black" points="563.38,-425 290.88,-425 290.88,-389 563.38,-389 563.38,-425"/>
<text text-anchor="middle" x="427.12" y="-402.32" font-family="sans-serif" font-size="14.00">aws_iam_role_policy.s3_download_policy</text>
</g>
<!-- aws_iam_role_policy.s3_download_policy&#45;&gt;aws_iam_role.codebuild_role -->
<g id="edge12" class="edge">
<title>aws_iam_role_policy.s3_download_policy&#45;&gt;aws_iam_role.codebuild_role</title>
<path fill="none" stroke="black" d="M295.11,-388.56C266.39,-384.51 236.29,-380.28 208.54,-376.37"/>
<polygon fill="black" stroke="black" points="209.11,-372.91 198.72,-374.99 208.13,-379.85 209.11,-372.91"/>
</g>
<!-- aws_iam_role_policy.s3_policy -->
<g id="node12" class="node">
<title>aws_iam_role_policy.s3_policy</title>
<polygon fill="none" stroke="black" points="921,-198 716.75,-198 716.75,-162 921,-162 921,-198"/>
<text text-anchor="middle" x="818.88" y="-175.32" font-family="sans-serif" font-size="14.00">aws_iam_role_policy.s3_policy</text>
</g>
<!-- aws_iam_role_policy.s3_policy&#45;&gt;aws_iam_role.codepipeline_role -->
<g id="edge13" class="edge">
<title>aws_iam_role_policy.s3_policy&#45;&gt;aws_iam_role.codepipeline_role</title>
<path fill="none" stroke="black" d="M716.53,-170.46C696.46,-166.5 675.92,-160.9 657.5,-153 639.12,-145.12 639.99,-133.62 621.5,-126 597.96,-116.29 571.57,-109.96 546.05,-105.85"/>
<polygon fill="black" stroke="black" points="546.69,-102.41 536.28,-104.39 545.66,-109.33 546.69,-102.41"/>
</g>
<!-- aws_iam_role_policy.s3_policy&#45;&gt;aws_s3_bucket.tatulicicd -->
<g id="edge14" class="edge">
<title>aws_iam_role_policy.s3_policy&#45;&gt;aws_s3_bucket.tatulicicd</title>
<path fill="none" stroke="black" d="M716.53,-189.54C696.46,-193.5 675.92,-199.1 657.5,-207 639.12,-214.88 639.99,-226.38 621.5,-234 591.08,-246.54 555.94,-253.46 524.02,-257.2"/>
<polygon fill="black" stroke="black" points="523.95,-253.69 514.38,-258.24 524.69,-260.65 523.95,-253.69"/>
</g>
<!-- aws_iam_role_policy_attachment.codebuild_ecr_full_access -->
<g id="node13" class="node">
<title>aws_iam_role_policy_attachment.codebuild_ecr_full_access</title>
<polygon fill="none" stroke="black" points="621.5,-333 232.75,-333 232.75,-297 621.5,-297 621.5,-333"/>
<text text-anchor="middle" x="427.12" y="-310.32" font-family="sans-serif" font-size="14.00">aws_iam_role_policy_attachment.codebuild_ecr_full_access</text>
</g>
<!-- aws_iam_role_policy_attachment.codebuild_ecr_full_access&#45;&gt;aws_iam_role.codebuild_role -->
<g id="edge15" class="edge">
<title>aws_iam_role_policy_attachment.codebuild_ecr_full_access&#45;&gt;aws_iam_role.codebuild_role</title>
<path fill="none" stroke="black" d="M295.11,-333.44C266.39,-337.49 236.29,-341.72 208.54,-345.63"/>
<polygon fill="black" stroke="black" points="208.13,-342.15 198.72,-347.01 209.11,-349.09 208.13,-342.15"/>
</g>
<!-- aws_iam_role_policy_attachment.codebuild_policy -->
<g id="node14" class="node">
<title>aws_iam_role_policy_attachment.codebuild_policy</title>
<polygon fill="none" stroke="black" points="592.25,-225 262,-225 262,-189 592.25,-189 592.25,-225"/>
<text text-anchor="middle" x="427.12" y="-202.32" font-family="sans-serif" font-size="14.00">aws_iam_role_policy_attachment.codebuild_policy</text>
</g>
<!-- aws_iam_role_policy_attachment.codebuild_policy&#45;&gt;aws_iam_role.codebuild_role -->
<g id="edge16" class="edge">
<title>aws_iam_role_policy_attachment.codebuild_policy&#45;&gt;aws_iam_role.codebuild_role</title>
<path fill="none" stroke="black" d="M261.51,-222.64C251.57,-225.82 241.91,-229.58 232.75,-234 184.94,-257.08 143.05,-303.64 119.5,-333.52"/>
<polygon fill="black" stroke="black" points="116.77,-331.33 113.44,-341.38 122.32,-335.6 116.77,-331.33"/>
</g>
</g>
</svg>
